<?xml version="1.0" standalone="no"?>
<!DOCTYPE svg PUBLIC "-//W3C//DTD SVG 20010904//EN"
 "http://www.w3.org/TR/2001/REC-SVG-20010904/DTD/svg10.dtd">
<svg version="1.0" xmlns="http://www.w3.org/2000/svg"
 width="476.000000pt" height="476.000000pt" viewBox="0 0 476.000000 476.000000"
 preserveAspectRatio="xMidYMid meet">
<metadata>
Created by potrace 1.11, written by Peter Selinger 2001-2013
</metadata>
<g transform="translate(0.000000,476.000000) scale(0.100000,-0.100000)"
fill="#000000" stroke="none">
<path d="M4555 4535 c-100 -102 -205 -198 -205 -189 0 2 -12 -8 -27 -23 -16
-16 -31 -28 -35 -28 -3 0 -19 -11 -35 -25 -34 -30 -201 -150 -209 -150 -3 0
-11 -6 -19 -12 -26 -26 -55 -48 -55 -43 0 3 -25 -13 -55 -35 -30 -22 -55 -38
-55 -36 0 5 -64 -35 -87 -54 -7 -6 -24 -15 -38 -22 -14 -6 -25 -15 -25 -19 0
-4 -11 -10 -25 -13 -14 -4 -25 -11 -25 -17 0 -6 -4 -7 -10 -4 -5 3 -10 1 -10
-6 0 -7 -3 -9 -7 -6 -3 4 -13 1 -22 -7 -15 -13 -37 -26 -141 -84 -25 -13 -72
-41 -105 -61 -33 -20 -62 -36 -65 -36 -11 -2 -116 -58 -130 -70 -8 -8 -19 -15
-25 -16 -22 -4 -95 -44 -95 -51 0 -4 -11 -8 -25 -8 -14 0 -28 -7 -31 -15 -4
-8 -10 -12 -15 -9 -5 3 -9 0 -9 -5 0 -6 -5 -11 -12 -11 -15 0 -122 -53 -126
-62 -2 -5 -8 -8 -13 -8 -12 0 -228 -106 -245 -121 -7 -6 -17 -8 -22 -5 -6 3
-15 -1 -22 -9 -7 -8 -19 -15 -27 -15 -8 0 -29 -10 -46 -22 -18 -13 -34 -22
-37 -22 -3 1 -39 -15 -80 -34 -41 -20 -77 -36 -80 -37 -3 0 -12 -5 -20 -10 -8
-5 -21 -10 -28 -11 -8 -2 -22 -10 -31 -18 -10 -9 -22 -16 -28 -16 -6 0 -56
-20 -111 -45 -55 -25 -104 -45 -111 -45 -6 0 -11 -5 -11 -12 0 -6 -3 -8 -7 -5
-3 4 -14 0 -24 -9 -10 -9 -25 -14 -33 -11 -8 3 -22 -3 -32 -14 -9 -10 -23 -19
-31 -19 -7 0 -36 -11 -63 -25 -27 -14 -56 -25 -65 -25 -8 0 -15 -4 -15 -8 0
-4 -32 -19 -70 -32 -39 -13 -70 -27 -70 -31 0 -4 -15 -10 -34 -13 -19 -4 -36
-11 -38 -17 -2 -6 -16 -12 -31 -12 -15 -1 -27 -5 -27 -9 0 -5 -7 -8 -15 -8 -7
0 -19 -8 -24 -17 -7 -12 -10 -14 -11 -4 0 11 -3 11 -16 0 -9 -7 -21 -14 -28
-15 -6 -1 -42 -15 -81 -32 -94 -39 -108 -45 -124 -48 -8 -1 -17 -7 -20 -11 -3
-5 -26 -15 -49 -22 -24 -7 -77 -28 -118 -46 -41 -19 -77 -34 -79 -35 -3 0 -21
-8 -41 -16 -20 -9 -45 -16 -55 -17 -11 -1 -19 -5 -19 -9 0 -4 -3 -7 -8 -7 -11
2 -72 -25 -72 -32 0 -3 -11 -5 -25 -4 -14 2 -25 0 -25 -5 0 -9 -60 -34 -77
-31 -27 4 -22 -22 13 -64 20 -25 33 -45 28 -45 -4 0 -1 -6 8 -13 8 -6 24 -28
34 -47 11 -19 22 -37 25 -40 6 -5 64 -95 61 -95 -1 0 3 -15 10 -32 7 -18 15
-33 19 -33 4 0 17 -26 30 -58 12 -31 28 -60 33 -64 6 -4 8 -8 4 -8 -4 0 0 -16
8 -35 8 -19 11 -35 7 -35 -5 0 -3 -4 2 -8 11 -7 54 -164 59 -212 1 -14 5 -31
9 -37 9 -14 7 -383 -2 -383 -4 0 -7 -8 -8 -17 -2 -25 -10 -78 -13 -78 -1 0 -3
-10 -6 -23 -7 -39 -46 -157 -55 -166 -5 -6 -9 -18 -9 -28 0 -10 -4 -18 -10
-18 -5 0 -9 -3 -8 -7 3 -13 -25 -83 -34 -83 -4 0 -8 -6 -8 -14 0 -8 -6 -21
-12 -28 -7 -7 -21 -29 -31 -48 -10 -19 -44 -70 -75 -114 -31 -43 -61 -86 -67
-95 -5 -8 -15 -20 -21 -26 -6 -5 -59 -60 -117 -121 -58 -61 -108 -110 -110
-108 -2 2 -18 -11 -36 -30 -36 -38 -28 -58 10 -23 13 12 24 20 25 17 2 -7 143
83 169 107 11 11 24 20 28 20 16 2 195 163 244 220 67 77 135 163 128 163 -3
0 3 9 12 19 32 35 40 47 47 69 4 12 12 22 18 22 6 0 8 3 5 6 -4 4 4 21 16 38
12 17 20 31 18 31 -4 0 42 98 49 105 5 4 53 144 55 160 1 3 9 31 19 64 9 32
15 61 12 64 -3 3 -2 10 3 16 5 6 14 47 21 91 6 44 15 97 19 117 4 20 4 43 0
50 -4 7 -3 18 2 24 7 8 6 14 -1 19 -8 5 -8 10 0 20 7 9 8 15 1 19 -7 5 -7 15
-1 31 6 16 6 25 0 25 -6 0 -6 9 -1 23 5 14 5 30 0 40 -7 11 -6 17 0 17 7 0 7
8 1 25 -7 17 -6 25 1 25 8 0 8 4 1 13 -5 6 -12 41 -15 77 -2 36 -9 76 -15 90
-8 22 -6 27 14 38 14 7 30 12 37 11 6 -1 26 3 42 10 17 7 37 14 45 17 30 7
165 46 180 52 23 8 22 8 63 16 20 5 37 12 37 18 0 5 5 6 10 3 5 -3 10 -1 10 6
0 10 3 10 11 2 8 -8 17 -9 33 -1 47 24 56 28 71 28 8 0 15 5 15 10 0 7 6 7 19
0 12 -6 21 -6 23 0 2 5 12 11 23 13 11 2 34 10 50 16 17 7 39 14 50 15 12 1
27 6 35 11 8 5 24 11 35 12 11 2 27 6 35 10 8 3 21 8 28 10 6 1 18 5 25 6 6 2
25 9 40 15 15 7 40 15 55 18 15 4 32 11 39 16 7 5 17 7 23 3 5 -3 10 -2 10 3
0 5 6 9 13 10 30 2 103 26 118 38 12 11 18 11 27 2 9 -9 12 -9 12 -1 0 6 17
17 38 23 20 6 44 14 52 17 8 4 17 7 20 8 3 0 31 11 62 23 32 12 70 24 84 26
15 3 31 11 36 18 4 7 8 10 8 5 0 -4 15 -1 34 7 19 8 37 12 40 8 3 -3 6 0 6 6
0 7 7 12 15 12 8 0 23 4 33 9 27 15 116 46 125 43 4 -1 7 2 7 7 0 6 9 8 20 6
11 -2 20 -1 20 4 0 4 17 13 38 20 20 7 51 19 67 27 68 30 181 74 193 74 6 0
12 5 12 10 0 6 6 10 13 10 6 0 32 10 57 22 25 12 48 22 53 23 4 2 9 4 12 5 3
1 8 3 13 4 4 1 61 28 126 59 65 31 123 57 127 57 5 0 9 5 9 12 0 6 3 8 6 5 4
-4 19 2 34 13 15 11 30 17 34 13 3 -3 6 -1 6 5 0 7 4 12 9 12 10 0 202 109
211 120 3 3 26 20 52 37 26 16 44 34 40 38 -4 4 -1 6 7 3 8 -2 31 13 52 33 21
20 39 36 41 35 2 0 24 20 49 47 26 26 46 47 44 47 -1 0 17 19 39 43 45 46 172
227 160 227 -4 0 3 11 16 25 13 14 19 25 14 25 -5 0 -4 4 1 8 12 8 71 143 67
155 -1 4 2 7 7 7 8 0 17 21 26 59 5 19 35 112 42 131 3 8 7 24 8 35 4 45 30
145 37 145 5 0 4 9 -2 20 -6 11 -7 20 -3 20 7 0 15 66 17 143 1 15 5 27 10 27
5 0 3 6 -3 14 -8 10 -9 16 -1 21 7 4 7 12 0 26 -6 11 -7 19 -1 19 5 0 6 14 1
35 -4 20 -4 38 1 41 5 3 5 13 -1 24 -7 13 -6 20 2 22 7 3 8 7 3 10 -6 3 -55
-41 -110 -97z"/>
<path d="M4206 3021 c-27 -14 -58 -33 -68 -41 -10 -8 -22 -14 -26 -14 -4 1
-19 -7 -34 -18 -16 -11 -28 -16 -28 -13 0 3 -13 -3 -29 -14 -16 -12 -33 -21
-37 -21 -13 0 -179 -84 -186 -95 -4 -5 -8 -7 -8 -2 0 8 -102 -41 -110 -53 -3
-4 -13 -6 -22 -4 -10 1 -18 -1 -18 -5 0 -4 -25 -15 -55 -26 -30 -10 -55 -22
-55 -26 0 -4 -12 -10 -26 -13 -14 -4 -45 -15 -68 -26 -92 -42 -122 -53 -138
-53 -10 0 -18 -4 -18 -8 0 -5 -7 -9 -16 -9 -8 0 -23 -7 -31 -16 -13 -13 -17
-13 -24 -2 -6 9 -9 9 -9 1 0 -6 -23 -19 -50 -28 -28 -9 -57 -23 -65 -32 -9 -8
-15 -10 -15 -3 0 6 -9 5 -22 -4 -13 -8 -27 -15 -33 -16 -24 -2 -85 -24 -85
-31 0 -4 -8 -6 -17 -5 -9 2 -28 -3 -42 -11 -15 -7 -32 -13 -38 -13 -7 0 -13
-5 -13 -12 0 -6 -3 -9 -6 -5 -3 3 -24 -1 -46 -9 -22 -7 -44 -11 -49 -8 -5 3
-9 1 -9 -5 0 -10 -101 -43 -108 -36 -3 2 -11 -2 -19 -10 -8 -8 -25 -15 -39
-15 -13 0 -24 -4 -24 -9 0 -5 -8 -8 -17 -7 -10 2 -25 -1 -33 -5 -14 -7 -47
-20 -62 -24 -5 -2 -11 -4 -15 -5 -5 -1 -11 -2 -15 -1 -3 0 -32 -8 -64 -19 -31
-11 -65 -20 -76 -20 -10 0 -18 -5 -18 -12 0 -6 -3 -9 -6 -5 -3 3 -24 -1 -46
-9 -23 -8 -43 -12 -46 -9 -3 3 -12 -1 -20 -7 -8 -7 -21 -14 -31 -15 -52 -10
-73 -15 -141 -34 -41 -11 -81 -21 -87 -22 -7 0 -13 -3 -13 -6 0 -5 -21 -9 -72
-14 -10 -1 -18 -4 -18 -7 0 -4 -6 -7 -12 -8 -7 0 -51 -10 -98 -22 -145 -36
-255 -58 -262 -54 -4 2 -9 0 -13 -5 -3 -6 -26 -13 -50 -17 -25 -3 -47 -9 -49
-13 -2 -3 2 -37 9 -76 7 -38 11 -73 9 -77 -2 -3 0 -9 6 -13 7 -4 7 -12 0 -26
-8 -13 -7 -19 0 -19 6 0 8 -4 5 -10 -12 -19 -14 -50 -4 -50 6 0 9 -29 8 -75
-2 -41 -7 -75 -11 -75 -5 0 -4 -9 2 -20 6 -11 7 -20 3 -20 -5 0 -8 -12 -7 -27
1 -41 -25 -195 -37 -209 -7 -8 -7 -14 1 -19 6 -3 7 -12 3 -18 -12 -20 -51
-137 -46 -137 3 0 0 -7 -7 -15 -6 -8 -9 -18 -6 -24 3 -5 1 -11 -6 -13 -6 -2
-13 -15 -15 -28 -2 -13 -10 -31 -18 -40 -8 -9 -15 -22 -15 -29 0 -13 -29 -73
-39 -81 -3 -3 -18 -28 -32 -57 -15 -29 -29 -49 -33 -46 -3 4 -6 0 -6 -8 0 -8
-13 -30 -30 -49 -16 -19 -29 -41 -30 -48 0 -7 -4 -10 -10 -7 -5 3 -10 1 -10
-5 0 -6 -11 -22 -25 -35 -13 -14 -22 -25 -20 -25 2 0 -13 -18 -35 -40 -38 -38
-40 -69 -2 -33 35 34 72 63 72 57 0 -3 15 12 34 35 18 22 36 37 40 34 3 -4 6
-1 6 5 0 6 29 39 64 74 36 35 65 66 65 71 1 4 4 8 9 9 10 3 52 67 52 79 0 6 5
7 10 4 6 -3 10 -1 10 6 0 7 11 27 25 44 13 18 21 35 18 39 -4 3 -1 6 5 6 6 0
23 26 39 58 15 31 31 58 35 60 3 2 12 23 19 48 7 24 17 44 21 44 4 0 8 6 8 14
0 7 8 31 17 52 9 22 18 48 20 59 2 10 7 22 11 25 4 3 7 20 7 38 -1 17 3 32 6
32 4 0 11 25 14 55 4 30 11 58 16 61 5 3 6 10 3 16 -4 7 -2 8 4 4 7 -4 12 -4
12 1 0 4 32 8 70 8 39 -1 70 3 70 7 0 5 9 4 20 -2 12 -6 20 -7 20 -1 0 5 21
11 48 14 82 8 146 17 177 24 17 4 44 7 60 8 17 1 35 4 40 7 6 3 31 9 57 12 26
4 50 11 53 17 4 6 13 6 23 0 9 -5 22 -5 31 0 16 9 127 37 166 43 61 8 105 20
105 28 0 5 4 7 9 4 5 -3 22 -2 37 3 16 5 49 15 74 22 25 7 50 16 57 21 7 5 13
4 16 -4 4 -9 6 -9 6 -1 1 7 17 15 36 19 19 3 35 9 35 13 0 4 8 7 18 8 43 3 62
8 62 15 0 4 11 8 25 8 14 0 25 5 25 10 0 6 3 9 8 8 4 -1 21 3 37 8 17 6 33 12
38 12 4 1 20 8 37 17 16 8 37 17 47 19 10 1 34 10 53 19 19 8 39 13 45 10 5
-4 7 -3 3 2 -9 10 70 47 83 39 5 -3 9 -1 9 4 0 8 75 48 148 79 17 7 32 18 32
23 0 6 3 9 8 8 9 -3 84 42 94 56 4 6 8 7 8 3 0 -4 20 6 44 22 24 17 46 28 50
26 3 -3 4 -2 1 2 -5 6 67 60 73 55 1 -1 13 8 27 20 13 13 41 37 62 53 21 17
75 66 120 110 46 44 83 79 83 77 0 -3 19 21 42 52 23 31 45 56 50 56 5 0 7 4
3 9 -3 6 3 14 12 20 10 6 14 11 9 11 -5 0 1 9 14 20 13 11 20 20 15 20 -4 0 3
15 17 33 13 17 30 46 38 62 8 17 22 36 30 43 8 8 9 11 2 7 -7 -4 -4 8 8 27 11
18 20 41 20 51 0 9 5 17 10 17 6 0 10 9 10 20 0 11 5 20 11 20 8 0 8 5 -1 15
-7 8 -8 15 -2 15 8 0 25 41 19 46 -1 1 -24 -10 -51 -25z"/>
<path d="M3248 1735 c-3 -3 -15 -8 -27 -10 -11 -3 -29 -7 -38 -10 -248 -64
-336 -85 -343 -80 -4 3 -10 1 -12 -5 -2 -6 -12 -12 -23 -14 -11 -3 -76 -16
-145 -31 -69 -15 -161 -33 -205 -41 -44 -8 -88 -18 -97 -24 -11 -6 -19 -6 -23
1 -5 7 -11 7 -19 0 -7 -6 -31 -12 -54 -13 -23 -2 -42 -5 -42 -8 0 -3 -10 -5
-22 -6 -13 0 -45 -4 -73 -8 -138 -19 -358 -37 -423 -34 l-72 3 -16 -34 c-9
-18 -18 -41 -19 -50 -2 -9 -4 -17 -5 -18 -2 -2 -4 -7 -5 -13 -1 -5 -3 -11 -4
-12 -2 -2 -4 -13 -7 -26 -2 -13 -13 -42 -23 -65 -21 -47 -35 -90 -32 -96 2 -2
-2 -7 -7 -10 -5 -3 -26 -43 -47 -88 -21 -46 -42 -83 -48 -83 -6 0 -8 -3 -4 -6
3 -4 -5 -21 -19 -40 -34 -43 -23 -61 19 -32 42 29 197 185 197 198 0 6 9 19
19 29 15 15 37 20 105 23 47 1 86 7 86 11 0 4 8 3 19 -2 10 -6 21 -7 25 -4 7
8 16 9 95 17 68 7 214 32 244 42 12 4 29 8 37 9 8 1 46 10 83 19 38 9 72 14
77 11 5 -3 10 -1 12 3 1 5 48 24 103 42 55 18 105 37 111 41 6 5 23 10 38 11
14 1 26 5 26 9 0 3 21 14 48 24 26 10 49 21 52 24 3 3 34 20 70 36 36 17 67
32 70 35 3 3 23 14 45 24 22 11 52 31 68 45 15 14 27 21 27 16 0 -4 9 2 20 15
11 13 20 19 20 14 0 -5 7 0 15 10 8 11 15 17 15 13 0 -4 36 22 81 59 58 48 77
69 67 75 -15 10 -32 11 -40 4z"/>
</g>
</svg>
